<?xml version="1.0" encoding="utf-8"?>
<!-- Generator: Adobe Illustrator 25.1.0, SVG Export Plug-In . SVG Version: 6.00 Build 0)  -->
<svg version="1.1" id="Layer_1" focusable="false" xmlns="http://www.w3.org/2000/svg" xmlns:xlink="http://www.w3.org/1999/xlink"
	 x="0px" y="0px" viewBox="0 0 576 512" style="enable-background:new 0 0 576 512;" xml:space="preserve">
<style type="text/css">
	.st0{fill:#FAFAFA;}
</style>
<path class="st0" d="M524.5,303.8l46.7-205.5c3.4-14.8-7.9-29-23.1-29H160l-9.1-44.3c-2.3-11-12-19-23.2-19H26.4
	C13.3,6.1,2.7,16.7,2.7,29.8v15.8c0,13.1,10.6,23.7,23.7,23.7h69.1l69.4,339.3c-16.6,9.6-27.8,27.5-27.8,48
	c0,30.6,24.8,55.3,55.3,55.3s55.3-24.8,55.3-55.3c0-15.5-6.4-29.5-16.6-39.5h207.2c-10.3,10-16.6,24-16.6,39.5
	c0,30.6,24.8,55.3,55.3,55.3s55.3-24.8,55.3-55.3c0-21.9-12.7-40.8-31.2-49.8l5.5-24c3.4-14.8-7.9-29-23.1-29H218.2l-6.5-31.6h289.7
	C512.4,322.3,522,314.6,524.5,303.8z"/>
</svg>
