<?xml version="1.0" encoding="utf-8"?>
<!-- Generator: Adobe Illustrator 25.1.0, SVG Export Plug-In . SVG Version: 6.00 Build 0)  -->
<svg version="1.1" id="logo" xmlns="http://www.w3.org/2000/svg" xmlns:xlink="http://www.w3.org/1999/xlink" x="0px" y="0px"
	 viewBox="0 0 500 85.4" style="enable-background:new 0 0 500 85.4;" xml:space="preserve">
<style type="text/css">
	.st0{fill:#FAFAFA;}
	.st1{fill-rule:evenodd;clip-rule:evenodd;fill:#FAFAFA;}
	.st2{fill-rule:evenodd;clip-rule:evenodd;fill:#FFFFFF;}
	.st3{fill-rule:evenodd;clip-rule:evenodd;}
</style>
<g id="shoebox">
	<g id="shoe">
		<path class="st0" d="M34.7,68.3c0-1.9-0.9-3.4-2.8-4.5c-1.9-1.1-4.9-2.1-9.1-3C8.8,57.9,1.8,52,1.8,43c0-5.2,2.2-9.5,6.5-13
			c4.3-3.5,9.9-5.2,16.9-5.2c7.4,0,13.4,1.8,17.8,5.3c4.5,3.5,6.7,8,6.7,13.6H34.1c0-2.2-0.7-4.1-2.2-5.5c-1.4-1.5-3.7-2.2-6.8-2.2
			c-2.6,0-4.7,0.6-6.1,1.8c-1.4,1.2-2.2,2.7-2.2,4.5c0,1.7,0.8,3.1,2.5,4.2c1.6,1.1,4.4,2,8.3,2.8c3.9,0.8,7.2,1.7,9.9,2.6
			c8.3,3,12.4,8.3,12.4,15.8c0,5.3-2.3,9.7-6.9,13c-4.6,3.3-10.5,5-17.8,5c-4.9,0-9.3-0.9-13.1-2.6c-3.8-1.8-6.8-4.1-9-7.2
			c-2.2-3-3.2-6.3-3.2-9.9h14.8c0.1,2.8,1.2,4.9,3.1,6.4c1.9,1.5,4.5,2.2,7.7,2.2c3,0,5.3-0.6,6.8-1.7
			C33.9,71.6,34.7,70.1,34.7,68.3z"/>
		<path class="st0" d="M70.8,32.3c4.1-5,9.4-7.5,15.6-7.5c12.7,0,19.1,7.4,19.3,22.1v37.5H90.1V47.4c0-3.4-0.7-5.8-2.2-7.4
			c-1.4-1.6-3.8-2.4-7.2-2.4c-4.6,0-7.9,1.8-10,5.3v41.6H55.2V1.3h15.6V32.3z"/>
		<path class="st0" d="M110.7,54.6c0-5.8,1.1-11,3.4-15.5c2.2-4.5,5.5-8.1,9.7-10.6c4.2-2.5,9.1-3.7,14.6-3.7
			c7.9,0,14.4,2.4,19.3,7.3c5,4.8,7.8,11.4,8.4,19.7l0.1,4c0,9-2.5,16.2-7.5,21.6c-5,5.4-11.7,8.1-20.2,8.1
			c-8.4,0-15.2-2.7-20.2-8.1c-5-5.4-7.6-12.8-7.6-22.1V54.6z M126.3,55.7c0,5.6,1,9.8,3.1,12.8c2.1,2.9,5.1,4.4,9,4.4
			c3.8,0,6.7-1.5,8.9-4.4c2.1-2.9,3.2-7.6,3.2-14c0-5.5-1.1-9.7-3.2-12.7c-2.1-3-5.1-4.5-9-4.5c-3.8,0-6.8,1.5-8.9,4.5
			C127.4,44.9,126.3,49.5,126.3,55.7z"/>
		<path class="st0" d="M200.5,85.5c-8.6,0-15.6-2.6-21-7.9c-5.4-5.3-8.1-12.3-8.1-21.1v-1.5c0-5.9,1.1-11.1,3.4-15.8
			c2.3-4.6,5.5-8.2,9.7-10.7c4.2-2.5,8.9-3.8,14.3-3.8c8,0,14.3,2.5,18.9,7.6c4.6,5.1,6.9,12.2,6.9,21.5v6.4h-37.3
			c0.5,3.8,2,6.9,4.6,9.2c2.5,2.3,5.8,3.5,9.7,3.5c6,0,10.7-2.2,14.1-6.5l7.7,8.6c-2.3,3.3-5.5,5.9-9.5,7.8
			C209.9,84.6,205.4,85.5,200.5,85.5z M198.8,37.4c-3.1,0-5.6,1.1-7.6,3.2c-1.9,2.1-3.2,5.1-3.7,9h21.8v-1.3c-0.1-3.5-1-6.2-2.8-8.1
			C204.6,38.4,202.1,37.4,198.8,37.4z"/>
	</g>
	<g id="box">
		<path class="st0" d="M334.7,84.4V5.6h27.6c9.6,0,16.8,1.8,21.8,5.5c4.9,3.7,7.4,9,7.4,16.1c0,3.9-1,7.3-3,10.2
			c-2,2.9-4.7,5.1-8.3,6.5c4,1,7.2,3,9.6,6.1c2.3,3.1,3.5,6.8,3.5,11.3c0,7.6-2.4,13.3-7.3,17.2c-4.8,3.9-11.7,5.9-20.7,6H334.7z
			 M350.9,38.7h12c8.2-0.1,12.3-3.4,12.3-9.8c0-3.6-1-6.1-3.1-7.7c-2.1-1.6-5.4-2.4-9.8-2.4h-11.4V38.7z M350.9,50.1v21.3h13.9
			c3.8,0,6.8-0.9,9-2.7c2.1-1.8,3.2-4.3,3.2-7.6c0-7.2-3.7-10.9-11.2-11H350.9z"/>
		<path class="st0" d="M395.3,54.6c0-5.8,1.1-11,3.4-15.5c2.2-4.5,5.5-8.1,9.7-10.6c4.2-2.5,9.1-3.7,14.6-3.7
			c7.9,0,14.4,2.4,19.3,7.3c5,4.8,7.8,11.4,8.4,19.7l0.1,4c0,9-2.5,16.2-7.5,21.6c-5,5.4-11.7,8.1-20.2,8.1
			c-8.4,0-15.2-2.7-20.2-8.1c-5-5.4-7.6-12.8-7.6-22.1V54.6z M410.9,55.7c0,5.6,1,9.8,3.1,12.8c2.1,2.9,5.1,4.4,9,4.4
			c3.8,0,6.7-1.5,8.9-4.4c2.1-2.9,3.2-7.6,3.2-14c0-5.5-1.1-9.7-3.2-12.7c-2.1-3-5.1-4.5-9-4.5c-3.8,0-6.8,1.5-8.9,4.5
			C412,44.9,410.9,49.5,410.9,55.7z"/>
		<path class="st0" d="M472.7,43.4l9.9-17.5h16.7l-16.7,28.7L500,84.4h-16.8L472.8,66l-10.4,18.4h-16.8l17.4-29.9l-16.6-28.7h16.8
			L472.7,43.4z"/>
	</g>
</g>
<g id="icon">
	<g>
		<path class="st0" d="M320.4,85.5h-82.1V3.5h82.1V85.5z M246.2,77.6h66.2V11.4h-66.2V77.6z"/>
	</g>
	<path class="st1" d="M298.6,55.3c-2.8-5.9-9.4-13.2-9.4-13.2c0.6-1.9-1.1-3.4-1.8-3.9c-0.2-0.1-0.2-0.2-0.2-0.2
		c0.8-2.2-2.3-4.6-2.3-4.6l-3.7-12.1c-0.1-0.2-0.2-0.4-0.4-0.5c-0.2-0.2-0.6-0.3-0.9-0.1l-4.9,1.4c-3.2,1,2.4,9.1,1,9.2
		c-0.9,0.1-2.7-0.4-4.6-1.7c-1-0.8-2.1-1.8-3-3.2c-1.9-2.8,0.9-6.3-0.3-7.2c-0.4-0.3-1.3-0.3-3,0.2c-6.6,1.8-11.2,9.1-14.5,13.6
		c-2.2,3.1-1.1,4.4,1.6,6.3c0.7,0.5,1.6,1.2,2.5,1.9c0.7,0.5,1.4,1,2.1,1.6c3.4,2.8,27.7,22.1,32.7,25.7c5,3.7,13.2,5.7,16.1,1.7
		C308.6,66.3,301.4,61.2,298.6,55.3z"/>
</g>
</svg>
