<svg xmlns="http://www.w3.org/2000/svg" width="57.25" height="54.388" viewBox="0 0 57.25 54.388">
  <path id="ic_card_giftcard_24px" d="M53.525,13.45h-6.24A8.567,8.567,0,0,0,32.056,5.864L30.625,7.782,29.194,5.836A8.57,8.57,0,0,0,13.965,13.45H7.725a5.681,5.681,0,0,0-5.7,5.725L2,50.663a5.705,5.705,0,0,0,5.725,5.725h45.8a5.705,5.705,0,0,0,5.725-5.725V19.175A5.705,5.705,0,0,0,53.525,13.45ZM39.213,7.725a2.863,2.863,0,1,1-2.862,2.863A2.871,2.871,0,0,1,39.213,7.725Zm-17.175,0a2.863,2.863,0,1,1-2.863,2.863A2.871,2.871,0,0,1,22.038,7.725ZM53.525,50.663H7.725V44.938h45.8Zm0-14.313H7.725V19.175H22.267l-5.954,8.1,4.637,3.349,6.813-9.275,2.863-3.893,2.863,3.893L40.3,30.625l4.637-3.349-5.954-8.1H53.525Z" transform="translate(-2 -2)"/>
</svg>
