<?xml version="1.0" encoding="utf-8"?>
<!-- Generator: Adobe Illustrator 24.1.2, SVG Export Plug-In . SVG Version: 6.00 Build 0)  -->
<svg version="1.1" id="Layer_1" xmlns="http://www.w3.org/2000/svg" xmlns:xlink="http://www.w3.org/1999/xlink" x="0px" y="0px"
	 viewBox="0 0 885.2 343.2" style="enable-background:new 0 0 885.2 343.2;" xml:space="preserve">
<g>
	<path d="M11.4,333.9c-2.8,0-3.7-2.3-3.7-3.7V13c0-2,1.7-3.7,3.7-3.7h41.7c2,0,3.7,1.7,3.7,3.7v255.1c0,10.5,8.5,19,19,19h69.6
		c2.3,0,3.7,1.9,3.7,3.7v39.4c0,2.8-1.4,3.7-3.7,3.7H11.4z"/>
	<path d="M189.9,333.9c-2.8,0-3.7-2.3-3.7-3.7V13c0-2,1.7-3.7,3.7-3.7h134c1.9,0,3.7,1.4,3.7,3.7v39.4c0,2.3-1.9,3.2-3.7,3.2h-69.6
		c-10.5,0-19,8.5-19,19v71.5h53.9c1.9,0,3.7,1.4,3.7,3.7v39c0,2.8-1.9,3.7-3.7,3.7h-53.9v76.1c0,10.5,8.5,19,19,19h69.6
		c2,0,3.7,1.7,3.7,3.7v39c0,2.8-1.9,3.7-3.7,3.7H189.9z"/>
	<path d="M470.5,55.7c-10.5,0-19,8.5-19,19v255.6c0,2.8-1.4,3.7-3.2,3.7h-42.2c-2.3,0-3.7-2.3-3.7-3.7V74.6c0-10.5-8.5-19-19-19
		h-23.2c-2.8,0-3.7-1.9-3.7-3.2V13c0-2,1.7-3.7,3.7-3.7h134c1.9,0,3.7,1.4,3.7,3.7v39.4c0,2.3-1.9,3.2-3.7,3.2H470.5z"/>
	<path d="M630,333.9c-2.8,0-3.7-2.3-3.7-3.7V192.5h-43.1v137.7c0,2.8-1.4,3.7-3.7,3.7h-41.7c-2.8,0-3.7-2.3-3.7-3.7V13
		c0-2.3,1.4-3.7,3.7-3.7h41.7c2.3,0,3.7,1.4,3.7,3.7v132.6h43.1V13c0-2.3,1.4-3.7,3.7-3.7h41.7c2.3,0,3.7,1.4,3.7,3.7v317.2
		c0,2.8-1.4,3.7-3.7,3.7H630z"/>
	<path d="M814,9.3c2.8,0,3.7,2.3,3.7,3.7l59.8,317.2c0,2.3-1.4,3.7-3.7,3.7h-41.7c-1.9,0-3.7-1.4-3.7-3.7l-9.7-57h-49.6l-9.7,57
		c0,2.3-1.4,3.7-3.7,3.7h-41.7c-2.3,0-3.7-1.4-3.7-3.7L771.8,13c0-1.4,0.9-3.7,3.7-3.7H814z M788.3,226.8H800c5.7,0,10-5.1,9-10.7
		l-14.9-86.2l-14.9,86.2C778.3,221.7,782.6,226.8,788.3,226.8z"/>
</g>
</svg>
