<?xml version="1.0" encoding="utf-8"?>
<!-- Generator: Adobe Illustrator 25.2.0, SVG Export Plug-In . SVG Version: 6.00 Build 0)  -->
<svg version="1.1" id="logo_x5F_white" xmlns="http://www.w3.org/2000/svg" xmlns:xlink="http://www.w3.org/1999/xlink" x="0px"
	 y="0px" viewBox="0 0 96.1 80.2" style="enable-background:new 0 0 96.1 80.2;" xml:space="preserve">
<style type="text/css">
	.st0{fill:#F3F5F6;}
	.st1{opacity:0.35;}
	.st2{fill:url(#SVGID_1_);}
</style>
<g id="V" transform="matrix(1, 0, 0, 1, 0, 0)">
	<polygon class="st0" points="54,71.1 37.1,79.7 36.2,80.2 17.6,43.5 0,9 17.6,0.1 17.8,0 37.1,37.9 	"/>
</g>
<g id="shadow" transform="matrix(1, 0, 0, 1, 0, 0)" class="st1">
	<g>
		<linearGradient id="SVGID_1_" gradientUnits="userSpaceOnUse" x1="17.5663" y1="40.0756" x2="37.0874" y2="40.0756">
			<stop  offset="0" style="stop-color:#171717;stop-opacity:0"/>
			<stop  offset="1" style="stop-color:#171717"/>
		</linearGradient>
		<polygon class="st2" points="37.1,37.9 37.1,79.7 36.2,80.2 17.6,43.5 17.6,0.1 17.8,0 		"/>
	</g>
</g>
<g id="H">
	<polygon class="st0" points="76.1,0.4 76.1,30.3 56.2,30.3 56.2,0.4 36.2,0.4 36.2,80.2 56.2,80.2 56.2,50.2 76.1,50.2 76.1,80.2 
		96.1,80.2 96.1,0.4 	"/>
</g>
</svg>
